<mxfile host="app.diagrams.net" modified="2024-04-02T09:54:33.742Z" agent="Mozilla/5.0 (Windows NT 10.0; Win64; x64) AppleWebKit/537.36 (KHTML, like Gecko) Chrome/123.0.0.0 Safari/537.36" etag="lBT1rD4QO_AciWfO5PZu" version="24.2.0" type="device" pages="3">
  <diagram name="System Context" id="msN-YmAG-LVP9TdCO0YX">
    <mxGraphModel dx="2049" dy="1066" grid="1" gridSize="10" guides="1" tooltips="1" connect="1" arrows="1" fold="1" page="1" pageScale="1" pageWidth="827" pageHeight="1169" math="0" shadow="0">
      <root>
        <mxCell id="0" />
        <mxCell id="1" parent="0" />
        <mxCell id="1MBSsFNvTJrWCRPbgMup-12" value="" style="edgeStyle=orthogonalEdgeStyle;rounded=0;orthogonalLoop=1;jettySize=auto;html=1;" edge="1" parent="1" source="1MBSsFNvTJrWCRPbgMup-1" target="1MBSsFNvTJrWCRPbgMup-11">
          <mxGeometry relative="1" as="geometry" />
        </mxCell>
        <mxCell id="1MBSsFNvTJrWCRPbgMup-13" value="via HTTP API" style="edgeLabel;html=1;align=center;verticalAlign=middle;resizable=0;points=[];" vertex="1" connectable="0" parent="1MBSsFNvTJrWCRPbgMup-12">
          <mxGeometry x="-0.1609" y="-1" relative="1" as="geometry">
            <mxPoint as="offset" />
          </mxGeometry>
        </mxCell>
        <mxCell id="1MBSsFNvTJrWCRPbgMup-1" value="&lt;font style=&quot;font-size: 14px;&quot;&gt;Todo App&lt;/font&gt;" style="rounded=1;whiteSpace=wrap;html=1;labelBackgroundColor=none;fillColor=#dae8fc;strokeColor=#6c8ebf;" vertex="1" parent="1">
          <mxGeometry x="330" y="322" width="140" height="80" as="geometry" />
        </mxCell>
        <mxCell id="1MBSsFNvTJrWCRPbgMup-7" style="edgeStyle=orthogonalEdgeStyle;rounded=0;orthogonalLoop=1;jettySize=auto;html=1;entryX=0.5;entryY=0;entryDx=0;entryDy=0;" edge="1" parent="1" source="1MBSsFNvTJrWCRPbgMup-2" target="1MBSsFNvTJrWCRPbgMup-6">
          <mxGeometry relative="1" as="geometry" />
        </mxCell>
        <mxCell id="1MBSsFNvTJrWCRPbgMup-9" value="Operates" style="edgeLabel;html=1;align=center;verticalAlign=middle;resizable=0;points=[];" vertex="1" connectable="0" parent="1MBSsFNvTJrWCRPbgMup-7">
          <mxGeometry x="-0.2667" y="-3" relative="1" as="geometry">
            <mxPoint as="offset" />
          </mxGeometry>
        </mxCell>
        <mxCell id="1MBSsFNvTJrWCRPbgMup-2" value="&lt;font style=&quot;font-size: 17px;&quot;&gt;User&lt;/font&gt;" style="shape=umlActor;verticalLabelPosition=top;verticalAlign=bottom;html=1;outlineConnect=0;labelPosition=center;align=center;" vertex="1" parent="1">
          <mxGeometry x="377.5" y="40" width="45" height="90" as="geometry" />
        </mxCell>
        <mxCell id="1MBSsFNvTJrWCRPbgMup-8" style="edgeStyle=orthogonalEdgeStyle;rounded=0;orthogonalLoop=1;jettySize=auto;html=1;entryX=0.5;entryY=0;entryDx=0;entryDy=0;" edge="1" parent="1" source="1MBSsFNvTJrWCRPbgMup-6" target="1MBSsFNvTJrWCRPbgMup-1">
          <mxGeometry relative="1" as="geometry" />
        </mxCell>
        <mxCell id="1MBSsFNvTJrWCRPbgMup-10" value="Communicates over HTTP" style="edgeLabel;html=1;align=center;verticalAlign=middle;resizable=0;points=[];" vertex="1" connectable="0" parent="1MBSsFNvTJrWCRPbgMup-8">
          <mxGeometry x="0.0833" y="1" relative="1" as="geometry">
            <mxPoint as="offset" />
          </mxGeometry>
        </mxCell>
        <mxCell id="1MBSsFNvTJrWCRPbgMup-6" value="&lt;font style=&quot;font-size: 14px;&quot;&gt;Web Browser&lt;/font&gt;&lt;div style=&quot;font-size: 14px;&quot;&gt;&lt;font style=&quot;font-size: 14px;&quot;&gt;(Client)&lt;/font&gt;&lt;/div&gt;" style="rounded=1;whiteSpace=wrap;html=1;" vertex="1" parent="1">
          <mxGeometry x="340" y="190" width="120" height="60" as="geometry" />
        </mxCell>
        <mxCell id="1MBSsFNvTJrWCRPbgMup-11" value="&lt;font style=&quot;font-size: 14px;&quot;&gt;Trello API&lt;/font&gt;" style="rounded=1;whiteSpace=wrap;html=1;fillColor=#f8cecc;strokeColor=#b85450;" vertex="1" parent="1">
          <mxGeometry x="330" y="460" width="140" height="80" as="geometry" />
        </mxCell>
        <mxCell id="1MBSsFNvTJrWCRPbgMup-14" value="" style="sketch=0;pointerEvents=1;shadow=0;dashed=0;html=1;strokeColor=none;fillColor=#434445;aspect=fixed;labelPosition=center;verticalLabelPosition=bottom;verticalAlign=top;align=center;outlineConnect=0;shape=mxgraph.vvd.web_browser;" vertex="1" parent="1">
          <mxGeometry x="467" y="203" width="49.29" height="35" as="geometry" />
        </mxCell>
        <mxCell id="1MBSsFNvTJrWCRPbgMup-15" value="" style="aspect=fixed;sketch=0;html=1;dashed=0;whitespace=wrap;fillColor=#2875E2;strokeColor=#ffffff;points=[[0.005,0.63,0],[0.1,0.2,0],[0.9,0.2,0],[0.5,0,0],[0.995,0.63,0],[0.72,0.99,0],[0.5,1,0],[0.28,0.99,0]];shape=mxgraph.kubernetes.icon2;kubernetesLabel=1;prIcon=api" vertex="1" parent="1">
          <mxGeometry x="480" y="476" width="50" height="48" as="geometry" />
        </mxCell>
      </root>
    </mxGraphModel>
  </diagram>
  <diagram id="fuu6Nu24uUIs9hCblO7x" name="Container Diagram">
    <mxGraphModel dx="2049" dy="1066" grid="1" gridSize="10" guides="1" tooltips="1" connect="1" arrows="1" fold="1" page="1" pageScale="1" pageWidth="827" pageHeight="1169" math="0" shadow="0">
      <root>
        <mxCell id="0" />
        <mxCell id="1" parent="0" />
        <mxCell id="GL4edgySHwnx4pj6l6Qb-3" value="&lt;font style=&quot;font-size: 14px;&quot;&gt;Todo App&lt;/font&gt;" style="rounded=1;whiteSpace=wrap;html=1;labelBackgroundColor=none;fillColor=#dae8fc;strokeColor=#6c8ebf;align=right;labelPosition=left;verticalLabelPosition=top;verticalAlign=bottom;" vertex="1" parent="1">
          <mxGeometry x="185" y="130" width="370" height="292" as="geometry" />
        </mxCell>
        <mxCell id="GL4edgySHwnx4pj6l6Qb-15" style="edgeStyle=orthogonalEdgeStyle;rounded=0;orthogonalLoop=1;jettySize=auto;html=1;entryX=0.5;entryY=0;entryDx=0;entryDy=0;" edge="1" parent="1" source="GL4edgySHwnx4pj6l6Qb-9" target="GL4edgySHwnx4pj6l6Qb-13">
          <mxGeometry relative="1" as="geometry" />
        </mxCell>
        <mxCell id="GL4edgySHwnx4pj6l6Qb-9" value="&lt;font style=&quot;font-size: 14px;&quot;&gt;Web Browser&lt;/font&gt;&lt;div style=&quot;font-size: 14px;&quot;&gt;&lt;font style=&quot;font-size: 14px;&quot;&gt;(Client)&lt;/font&gt;&lt;/div&gt;" style="rounded=1;whiteSpace=wrap;html=1;" vertex="1" parent="1">
          <mxGeometry x="310" y="40" width="120" height="60" as="geometry" />
        </mxCell>
        <mxCell id="GL4edgySHwnx4pj6l6Qb-10" value="&lt;font style=&quot;font-size: 14px;&quot;&gt;Trello API&lt;/font&gt;" style="rounded=1;whiteSpace=wrap;html=1;fillColor=#f8cecc;strokeColor=#b85450;" vertex="1" parent="1">
          <mxGeometry x="300" y="464" width="140" height="80" as="geometry" />
        </mxCell>
        <mxCell id="GL4edgySHwnx4pj6l6Qb-11" value="" style="sketch=0;pointerEvents=1;shadow=0;dashed=0;html=1;strokeColor=none;fillColor=#434445;aspect=fixed;labelPosition=center;verticalLabelPosition=bottom;verticalAlign=top;align=center;outlineConnect=0;shape=mxgraph.vvd.web_browser;" vertex="1" parent="1">
          <mxGeometry x="437" y="53" width="49.29" height="35" as="geometry" />
        </mxCell>
        <mxCell id="GL4edgySHwnx4pj6l6Qb-12" value="" style="aspect=fixed;sketch=0;html=1;dashed=0;whitespace=wrap;fillColor=#2875E2;strokeColor=#ffffff;points=[[0.005,0.63,0],[0.1,0.2,0],[0.9,0.2,0],[0.5,0,0],[0.995,0.63,0],[0.72,0.99,0],[0.5,1,0],[0.28,0.99,0]];shape=mxgraph.kubernetes.icon2;kubernetesLabel=1;prIcon=api" vertex="1" parent="1">
          <mxGeometry x="450" y="478" width="50" height="48" as="geometry" />
        </mxCell>
        <mxCell id="GL4edgySHwnx4pj6l6Qb-16" style="edgeStyle=orthogonalEdgeStyle;rounded=0;orthogonalLoop=1;jettySize=auto;html=1;entryX=0.5;entryY=0;entryDx=0;entryDy=0;" edge="1" parent="1" source="GL4edgySHwnx4pj6l6Qb-13" target="GL4edgySHwnx4pj6l6Qb-14">
          <mxGeometry relative="1" as="geometry" />
        </mxCell>
        <mxCell id="GL4edgySHwnx4pj6l6Qb-19" value="Request passed to" style="edgeLabel;html=1;align=center;verticalAlign=middle;resizable=0;points=[];" vertex="1" connectable="0" parent="GL4edgySHwnx4pj6l6Qb-16">
          <mxGeometry x="-0.1429" y="-1" relative="1" as="geometry">
            <mxPoint as="offset" />
          </mxGeometry>
        </mxCell>
        <mxCell id="GL4edgySHwnx4pj6l6Qb-13" value="Flask Webserver" style="rounded=1;whiteSpace=wrap;html=1;fillColor=#fff2cc;strokeColor=#d6b656;" vertex="1" parent="1">
          <mxGeometry x="310" y="170" width="120" height="60" as="geometry" />
        </mxCell>
        <mxCell id="GL4edgySHwnx4pj6l6Qb-17" style="edgeStyle=orthogonalEdgeStyle;rounded=0;orthogonalLoop=1;jettySize=auto;html=1;entryX=0.5;entryY=0;entryDx=0;entryDy=0;" edge="1" parent="1" source="GL4edgySHwnx4pj6l6Qb-14" target="GL4edgySHwnx4pj6l6Qb-10">
          <mxGeometry relative="1" as="geometry" />
        </mxCell>
        <mxCell id="GL4edgySHwnx4pj6l6Qb-18" value="via HTTP API" style="edgeLabel;html=1;align=center;verticalAlign=middle;resizable=0;points=[];" vertex="1" connectable="0" parent="GL4edgySHwnx4pj6l6Qb-17">
          <mxGeometry x="0.3237" y="2" relative="1" as="geometry">
            <mxPoint x="-2" y="-21" as="offset" />
          </mxGeometry>
        </mxCell>
        <mxCell id="GL4edgySHwnx4pj6l6Qb-14" value="&lt;font style=&quot;font-size: 10px;&quot;&gt;Todo Application Code (Python WSGI App)&lt;/font&gt;" style="rounded=1;whiteSpace=wrap;html=1;fillColor=#d5e8d4;strokeColor=#82b366;" vertex="1" parent="1">
          <mxGeometry x="310" y="290" width="120" height="60" as="geometry" />
        </mxCell>
      </root>
    </mxGraphModel>
  </diagram>
  <diagram id="MEQO2io3gHi2kIp6fwr5" name="Component Diagram">
    <mxGraphModel dx="1793" dy="933" grid="1" gridSize="10" guides="1" tooltips="1" connect="1" arrows="1" fold="1" page="1" pageScale="1" pageWidth="827" pageHeight="1169" math="0" shadow="0">
      <root>
        <mxCell id="0" />
        <mxCell id="1" parent="0" />
        <mxCell id="fFZoxK0oPG7hW2mZR-kG-12" value="&lt;font style=&quot;font-size: 10px;&quot;&gt;Todo Application Code&amp;nbsp;&lt;/font&gt;&lt;div&gt;&lt;font style=&quot;font-size: 10px;&quot;&gt;(Python WSGI App)&lt;/font&gt;&lt;/div&gt;" style="rounded=1;whiteSpace=wrap;html=1;labelPosition=left;verticalLabelPosition=top;align=right;verticalAlign=bottom;fillColor=#f5f5f5;fontColor=#333333;strokeColor=#666666;" vertex="1" parent="1">
          <mxGeometry x="114" y="130" width="600" height="400" as="geometry" />
        </mxCell>
        <mxCell id="fFZoxK0oPG7hW2mZR-kG-4" value="&lt;font style=&quot;font-size: 14px;&quot;&gt;Trello API&lt;/font&gt;" style="rounded=1;whiteSpace=wrap;html=1;fillColor=#f8cecc;strokeColor=#b85450;" vertex="1" parent="1">
          <mxGeometry x="354" y="654" width="140" height="80" as="geometry" />
        </mxCell>
        <mxCell id="fFZoxK0oPG7hW2mZR-kG-6" value="" style="aspect=fixed;sketch=0;html=1;dashed=0;whitespace=wrap;fillColor=#2875E2;strokeColor=#ffffff;points=[[0.005,0.63,0],[0.1,0.2,0],[0.9,0.2,0],[0.5,0,0],[0.995,0.63,0],[0.72,0.99,0],[0.5,1,0],[0.28,0.99,0]];shape=mxgraph.kubernetes.icon2;kubernetesLabel=1;prIcon=api" vertex="1" parent="1">
          <mxGeometry x="504" y="668" width="50" height="48" as="geometry" />
        </mxCell>
        <mxCell id="fFZoxK0oPG7hW2mZR-kG-7" style="edgeStyle=orthogonalEdgeStyle;rounded=0;orthogonalLoop=1;jettySize=auto;html=1;entryX=0.5;entryY=0;entryDx=0;entryDy=0;" edge="1" parent="1" source="fFZoxK0oPG7hW2mZR-kG-9" target="Uo9MZU2SXc6rysXruXZj-2">
          <mxGeometry relative="1" as="geometry" />
        </mxCell>
        <mxCell id="fFZoxK0oPG7hW2mZR-kG-8" value="Request passed to" style="edgeLabel;html=1;align=center;verticalAlign=middle;resizable=0;points=[];" vertex="1" connectable="0" parent="fFZoxK0oPG7hW2mZR-kG-7">
          <mxGeometry x="-0.1429" y="-1" relative="1" as="geometry">
            <mxPoint x="1" y="-17" as="offset" />
          </mxGeometry>
        </mxCell>
        <mxCell id="fFZoxK0oPG7hW2mZR-kG-9" value="Flask Webserver" style="rounded=1;whiteSpace=wrap;html=1;fillColor=#fff2cc;strokeColor=#d6b656;" vertex="1" parent="1">
          <mxGeometry x="364" y="20" width="120" height="60" as="geometry" />
        </mxCell>
        <mxCell id="fFZoxK0oPG7hW2mZR-kG-10" style="edgeStyle=orthogonalEdgeStyle;rounded=0;orthogonalLoop=1;jettySize=auto;html=1;entryX=0.5;entryY=0;entryDx=0;entryDy=0;exitX=0.5;exitY=1;exitDx=0;exitDy=0;" edge="1" parent="1" source="Uo9MZU2SXc6rysXruXZj-5" target="fFZoxK0oPG7hW2mZR-kG-4">
          <mxGeometry relative="1" as="geometry" />
        </mxCell>
        <mxCell id="fFZoxK0oPG7hW2mZR-kG-11" value="via HTTP API" style="edgeLabel;html=1;align=center;verticalAlign=middle;resizable=0;points=[];" vertex="1" connectable="0" parent="fFZoxK0oPG7hW2mZR-kG-10">
          <mxGeometry x="0.3237" y="2" relative="1" as="geometry">
            <mxPoint x="-2" y="-21" as="offset" />
          </mxGeometry>
        </mxCell>
        <mxCell id="GxCoUslfMzhVVyO3A_qw-1" style="edgeStyle=orthogonalEdgeStyle;rounded=0;orthogonalLoop=1;jettySize=auto;html=1;entryX=0.5;entryY=0;entryDx=0;entryDy=0;" edge="1" parent="1" source="Uo9MZU2SXc6rysXruXZj-2" target="Uo9MZU2SXc6rysXruXZj-5">
          <mxGeometry relative="1" as="geometry" />
        </mxCell>
        <mxCell id="Uo9MZU2SXc6rysXruXZj-2" value="Webserver Routes (app.py)" style="rounded=1;whiteSpace=wrap;html=1;" vertex="1" parent="1">
          <mxGeometry x="364" y="190" width="120" height="60" as="geometry" />
        </mxCell>
        <mxCell id="Uo9MZU2SXc6rysXruXZj-11" style="edgeStyle=orthogonalEdgeStyle;rounded=0;orthogonalLoop=1;jettySize=auto;html=1;entryX=1;entryY=0.5;entryDx=0;entryDy=0;" edge="1" parent="1" source="Uo9MZU2SXc6rysXruXZj-3" target="Uo9MZU2SXc6rysXruXZj-2">
          <mxGeometry relative="1" as="geometry" />
        </mxCell>
        <mxCell id="Uo9MZU2SXc6rysXruXZj-12" style="edgeStyle=orthogonalEdgeStyle;rounded=0;orthogonalLoop=1;jettySize=auto;html=1;entryX=1;entryY=0.5;entryDx=0;entryDy=0;" edge="1" parent="1" source="Uo9MZU2SXc6rysXruXZj-3" target="Uo9MZU2SXc6rysXruXZj-5">
          <mxGeometry relative="1" as="geometry" />
        </mxCell>
        <mxCell id="Uo9MZU2SXc6rysXruXZj-3" value="Data Classes&amp;nbsp;&lt;div&gt;(Item / ViewModel)&lt;/div&gt;" style="rounded=1;whiteSpace=wrap;html=1;" vertex="1" parent="1">
          <mxGeometry x="569" y="311" width="120" height="60" as="geometry" />
        </mxCell>
        <mxCell id="Uo9MZU2SXc6rysXruXZj-10" style="edgeStyle=orthogonalEdgeStyle;rounded=0;orthogonalLoop=1;jettySize=auto;html=1;exitX=1;exitY=0.5;exitDx=0;exitDy=0;entryX=0;entryY=0.5;entryDx=0;entryDy=0;" edge="1" parent="1" source="Uo9MZU2SXc6rysXruXZj-4" target="Uo9MZU2SXc6rysXruXZj-2">
          <mxGeometry relative="1" as="geometry" />
        </mxCell>
        <mxCell id="Uo9MZU2SXc6rysXruXZj-4" value="HTML Templates" style="rounded=1;whiteSpace=wrap;html=1;" vertex="1" parent="1">
          <mxGeometry x="214" y="190" width="120" height="60" as="geometry" />
        </mxCell>
        <mxCell id="Uo9MZU2SXc6rysXruXZj-5" value="Trello Client" style="rounded=1;whiteSpace=wrap;html=1;" vertex="1" parent="1">
          <mxGeometry x="364" y="438" width="120" height="60" as="geometry" />
        </mxCell>
        <mxCell id="Uo9MZU2SXc6rysXruXZj-13" style="edgeStyle=orthogonalEdgeStyle;rounded=0;orthogonalLoop=1;jettySize=auto;html=1;entryX=0;entryY=0.5;entryDx=0;entryDy=0;exitX=0.5;exitY=1;exitDx=0;exitDy=0;" edge="1" parent="1" source="Uo9MZU2SXc6rysXruXZj-7" target="fFZoxK0oPG7hW2mZR-kG-4">
          <mxGeometry relative="1" as="geometry" />
        </mxCell>
        <mxCell id="Uo9MZU2SXc6rysXruXZj-7" value="Environment Config&lt;div&gt;(.env file)&lt;/div&gt;" style="rounded=1;whiteSpace=wrap;html=1;" vertex="1" parent="1">
          <mxGeometry x="174" y="437" width="120" height="60" as="geometry" />
        </mxCell>
      </root>
    </mxGraphModel>
  </diagram>
</mxfile>
